<?xml version="1.0" standalone="no"?><!DOCTYPE svg PUBLIC "-//W3C//DTD SVG 1.1//EN" "http://www.w3.org/Graphics/SVG/1.1/DTD/svg11.dtd"><svg t="1540793891935" class="icon" style="" viewBox="0 0 1025 1024" version="1.1" xmlns="http://www.w3.org/2000/svg" p-id="1945" xmlns:xlink="http://www.w3.org/1999/xlink" width="200.1953125" height="200"><defs><style type="text/css"></style></defs><path d="M1015.268327 270.923776c-2.537472-4.083712-6.764544-1.980416-4.958208 2.871296 0.755712 2.004992 9.834496 20.523008 7.606272 54.17984-4.36224 64.985088-50.644992 186.824704-278.941696 352.182272 0.303104-3.663872-1.808384-7.774208-8.380416-8.318976 148.543488-170.96704 189.990912-288.868352 194.992128-363.298816 4.714496-69.71392-22.652928-101.093376-23.048192-101.476352-2.58048-2.42688-6.99392-0.940032-4.059136 4.073472 2.084864 3.540992 25.67168 33.210368 21.4016 97.032192-4.902912 73.252864-46.163968 191.404032-197.220352 364.077056-0.960512 0.321536-31.731712 22.552576-42.457088 32.690176-92.98944 87.79776-130.842624 165.670912-142.348288 195.264512-8.937472 22.9376 24.81152 47.470592 38.260736 8.763392 9.71776-28.010496 41.658368-102.5536 127.111168-189.6448 8.448-8.615936 33.185792-29.261824 34.1504-30.920704 233.340928-167.686144 281.665536-292.186112 286.244864-360.054784C1026.110439 291.223552 1015.479271 271.269888 1015.268327 270.923776z" p-id="1946" fill="#13227a"></path><path d="M502.608871 275.058688c-93.765632-6.28736-174.854144 64.602112-181.16608 158.365696-6.293504 93.739008 64.608256 174.841856 158.37184 181.153792 93.739008 6.28736 174.854144-64.6144 181.147648-158.365696C667.249639 362.446848 596.366311 281.346048 502.608871 275.058688zM637.207527 454.61504c-5.39648 80.521216-75.296768 141.6192-155.797504 136.22272-80.525312-5.408768-141.6192-75.321344-136.22272-155.828224 5.39648-80.50688 75.3152-141.604864 155.82208-136.208384C581.512167 304.207872 642.628583 374.095872 637.207527 454.61504z" p-id="1947" fill="#13227a"></path><path d="M671.075303 657.580032c269.930496-338.937856 70.529024-581.61152 70.529024-581.61152s-2.209792 39.337984-35.723264 67.596288c-32.530432-61.308928-68.859904-92.700672-68.859904-92.700672s12.86144 105.228288-124.182528 122.71616C288.367591 202.237952 71.386087 469.72928 309.212135 636.772352c82.78016 58.116096 130.985984 75.134976 191.842304 83.628032-42.0352 9.357312-81.113088 22.960128-168.491008 5.173248-417.792-85.024768-145.072128 64.985088-107.06944 161.114112C13.980647 883.419136-21.697561 931.23584 10.132455 957.575168c13.84448 11.450368 40.415232 18.628608 71.020544 18.579456 17.483776-0.024576 228.900864-7.8848 379.580416-100.573184C554.943463 817.629184 648.311783 686.17216 671.075303 657.580032zM749.138919 125.493248c13.492224 26.56256 34.732032 74.28096 40.742912 123.731968 12.556288 103.307264-19.316736 227.176448-75.07968 308.178944 61.538304-168.12032 39.145472-310.667264 1.732608-392.224768C730.385383 154.458112 742.069223 137.586688 749.138919 125.493248zM447.896551 854.94784c-100.68992 62.547968-257.488896 95.051776-348.512256 98.578432-42.381312 1.65888-70.8096-4.753408-72.12032-14.086144-4.88448-35.15392 231.489536-33.048576 231.489536-33.048576s-37.814272-80.656384-82.735104-123.805696c-17.13152-16.474112-39.665664-42.407936-46.708736-55.861248 6.361088-1.42336 19.5072-2.945024 45.17888-1.226752 35.514368 2.390016 87.08096 10.43456 153.2416 23.902208 23.963648 4.876288 45.08672 8.019968 64.612352 9.19552 112.183296 6.684672 169.920512-55.1936 169.920512-55.1936s-32.436224-0.557056-62.076928-4.517888c-57.645056-7.698432-98.975744-27.195392-176.98816-82.003968-75.810816-53.250048-106.205184-120.489984-87.873536-194.510848 26.61376-107.542528 152.485888-208.324608 280.588288-224.67584 87.728128-11.227136 122.933248-55.181312 136.802304-92.612608 18.591744 24.71936 41.566208 62.015488 57.856 111.130624 42.625024 128.622592 21.735424 273.64352-62.03392 431.056896C637.418471 668.174336 537.459687 799.3344 447.896551 854.94784z" p-id="1948" fill="#13227a"></path></svg>