<?xml version="1.0" standalone="no"?><!DOCTYPE svg PUBLIC "-//W3C//DTD SVG 1.1//EN" "http://www.w3.org/Graphics/SVG/1.1/DTD/svg11.dtd"><svg t="1540793882059" class="icon" style="" viewBox="0 0 1024 1024" version="1.1" xmlns="http://www.w3.org/2000/svg" p-id="1805" xmlns:xlink="http://www.w3.org/1999/xlink" width="200" height="200"><defs><style type="text/css"></style></defs><path d="M14.557353 378.686727a14.557353 14.557353 0 0 0-14.517748 15.611839l-0.039605 0.004951c7.24526 120.543101 97.846898 218.565746 214.927026 237.323715L135.300954 711.25578a12.846907 12.846907 0 0 0 0.680713 18.805001l-0.019802 0.024753c88.814457 78.744858 224.746618 75.593777 309.793639-9.450769 43.043328-43.040852 65.043966-99.114261 66.138057-155.514412h0.103964v-186.433626H14.557353z" fill="#0075C9" p-id="1806"></path><path d="M178.792315 485.850727m-63.56125 0a63.56125 63.56125 0 1 0 127.1225 0 63.56125 63.56125 0 1 0-127.1225 0Z" fill="#FFFFFF" p-id="1807"></path><path d="M347.133832 680.400924m-45.682019 0a45.682018 45.682018 0 1 0 91.364037 0 45.682018 45.682018 0 1 0-91.364037 0Z" fill="#FFFFFF" p-id="1808"></path><path d="M347.133832 478.659924m-34.921805 0a34.921805 34.921805 0 1 0 69.84361 0 34.921805 34.921805 0 1 0-69.84361 0Z" fill="#FFFFFF" p-id="1809"></path><path d="M1009.442647 378.686727a14.557353 14.557353 0 0 1 14.520223 15.611839l0.03713 0.002475c-7.24526 120.543101-97.846898 218.565746-214.927026 237.323716l79.626072 79.628547a12.846907 12.846907 0 0 1-0.680713 18.805001l0.019802 0.024754c-88.814457 78.744858-224.746618 75.593777-309.793639-9.45077-43.040852-43.040852-65.043966-99.114261-66.138057-155.514412h-0.103964v-186.433625l497.440172 0.002475z" fill="#0075C9" p-id="1810"></path><path d="M845.207685 485.850727m-63.56125 0a63.56125 63.56125 0 1 0 127.1225 0 63.56125 63.56125 0 1 0-127.1225 0Z" fill="#FFFFFF" p-id="1811"></path><path d="M676.866168 680.400924m-45.684493 0a45.684493 45.684493 0 1 0 91.368987 0 45.684493 45.684493 0 1 0-91.368987 0Z" fill="#FFFFFF" p-id="1812"></path><path d="M676.866168 478.659924m-34.92428 0a34.92428 34.92428 0 1 0 69.848561 0 34.92428 34.92428 0 1 0-69.848561 0Z" fill="#FFFFFF" p-id="1813"></path><path d="M562.652459 759.611143c0 27.971108-22.678876 50.649984-50.652459 50.649984s-50.652459-22.678876-50.652459-50.649984V331.856161c0-27.973584 22.678876-50.649984 50.652459-50.649984s50.652459 22.678876 50.652459 50.649984v427.754982z" fill="#333E48" p-id="1814"></path><path d="M461.347541 627.666721h101.304918v39.45164h-101.304918zM461.347541 545.733652h101.304918v39.451639h-101.304918z" fill="#5C6670" p-id="1815"></path><path d="M512 322.39054c-1.905996 0-3.811992-0.725269-5.26748-2.183232L412.982276 226.457064a7.448236 7.448236 0 1 1 10.532484-10.532484l93.75272 93.75272a7.448236 7.448236 0 0 1-5.26748 12.71324z" fill="#333E48" p-id="1816"></path><path d="M512 322.39054a7.448236 7.448236 0 0 1-5.26748-12.715716l93.75272-93.752719a7.448236 7.448236 0 1 1 10.532484 10.532484l-93.750244 93.750244a7.408631 7.408631 0 0 1-5.26748 2.185707z" fill="#333E48" p-id="1817"></path></svg>